<svg id="svg" version="1.1" xmlns="http://www.w3.org/2000/svg" xmlns:xlink="http://www.w3.org/1999/xlink" width="400" height="400" viewBox="0, 0, 400,400"><g id="svgg"><path id="path0" d="M2.478 1.127 C -0.213 3.641,0.000 -6.100,-0.000 114.206 C -0.000 200.968,0.102 223.152,0.500 223.299 C 0.941 223.462,5.840 222.864,9.500 222.200 L 10.800 221.964 10.806 116.682 C 10.809 58.777,10.955 11.175,11.130 10.900 C 11.384 10.500,49.467 10.419,200.224 10.500 L 389.000 10.600 389.101 88.152 L 389.202 165.704 390.701 165.445 C 391.525 165.303,393.497 165.015,395.082 164.805 C 396.668 164.596,398.423 164.309,398.982 164.169 L 400.000 163.913 400.000 84.552 L 400.000 5.191 399.153 3.389 C 398.687 2.398,397.804 1.230,397.191 0.794 C 396.083 0.005,394.924 0.000,199.881 0.000 L 3.685 -0.000 2.478 1.127 M50.267 106.667 C 49.859 107.074,49.945 215.519,50.354 215.771 C 50.689 215.979,52.301 215.799,59.200 214.784 C 60.850 214.541,63.100 214.220,64.200 214.071 L 66.200 213.800 66.301 160.100 L 66.403 106.400 58.468 106.400 C 54.104 106.400,50.413 106.520,50.267 106.667 M100.000 157.400 L 100.000 208.400 101.164 208.400 C 102.577 208.400,115.195 206.451,115.665 206.160 C 115.849 206.046,116.000 183.553,116.000 156.176 L 116.000 106.400 108.000 106.400 L 100.000 106.400 100.000 157.400 M149.200 153.576 C 149.200 181.747,149.348 200.844,149.567 200.979 C 149.769 201.104,151.164 201.023,152.667 200.800 C 155.897 200.320,160.602 199.649,163.400 199.271 L 165.400 199.000 165.502 152.700 L 165.603 106.400 157.402 106.400 L 149.200 106.400 149.200 153.576 M393.101 178.698 L 389.201 179.320 389.101 284.360 L 389.000 389.400 200.000 389.400 L 11.000 389.400 10.899 312.645 L 10.798 235.891 8.299 236.152 C 4.580 236.541,1.489 237.042,0.700 237.383 C 0.037 237.670,0.000 241.809,0.000 316.247 L 0.000 394.809 0.847 396.611 C 1.313 397.602,2.196 398.770,2.809 399.206 C 4.570 400.460,395.430 400.460,397.191 399.206 C 397.804 398.770,398.688 397.601,399.154 396.609 L 400.001 394.806 399.901 286.503 L 399.800 178.200 398.400 178.138 C 397.630 178.103,395.245 178.355,393.101 178.698 M156.400 213.962 L 149.400 215.029 149.298 254.314 L 149.196 293.600 157.398 293.600 L 165.600 293.600 165.600 253.200 L 165.600 212.800 164.500 212.848 C 163.895 212.874,160.250 213.376,156.400 213.962 M110.200 220.835 C 109.100 221.025,106.940 221.371,105.400 221.604 C 103.860 221.838,102.015 222.120,101.300 222.232 L 100.000 222.436 100.000 258.018 L 100.000 293.600 108.000 293.600 L 116.000 293.600 116.000 257.000 L 116.000 220.400 114.100 220.445 C 113.055 220.469,111.300 220.645,110.200 220.835 M57.315 228.749 C 53.748 229.327,50.642 229.990,50.413 230.222 C 50.128 230.510,50.028 240.632,50.098 262.022 L 50.200 293.400 58.300 293.508 L 66.400 293.617 66.400 260.608 L 66.400 227.600 65.100 227.649 C 64.385 227.676,60.882 228.171,57.315 228.749 " stroke="none" fill="#090909" fill-rule="evenodd"></path><path id="path1" d="M292.400 103.035 C 272.653 105.367,258.549 119.553,250.873 144.800 C 248.942 151.149,246.825 161.665,246.001 169.000 C 245.754 171.200,245.382 174.312,245.176 175.916 C 244.969 177.520,244.797 180.490,244.794 182.516 C 244.786 187.021,244.660 187.235,241.738 187.679 C 240.452 187.875,238.410 188.193,237.200 188.387 C 235.990 188.581,233.683 188.930,232.074 189.162 C 230.465 189.394,228.980 189.689,228.774 189.816 C 228.564 189.946,228.400 193.220,228.400 197.279 L 228.400 204.510 230.700 204.248 C 231.965 204.104,235.387 203.601,238.304 203.131 C 241.222 202.660,243.681 202.348,243.768 202.438 C 243.856 202.527,244.126 206.470,244.369 211.200 C 245.207 227.543,246.745 239.374,249.419 250.034 C 254.163 268.951,262.497 282.676,273.885 290.325 C 275.911 291.686,277.668 292.800,277.789 292.800 C 277.910 292.800,278.772 293.145,279.704 293.567 C 287.761 297.209,296.962 298.045,308.400 296.174 C 309.170 296.049,310.160 295.803,310.600 295.628 C 311.040 295.454,312.120 295.086,313.000 294.812 C 324.811 291.130,336.140 278.847,341.972 263.400 C 342.470 262.080,343.029 260.640,343.213 260.200 C 343.978 258.372,345.338 253.848,346.400 249.600 C 347.578 244.888,347.614 244.717,348.782 238.300 C 350.678 227.888,351.673 213.440,351.569 197.815 C 351.504 187.935,351.587 185.782,352.045 185.552 C 352.350 185.399,355.300 184.877,358.600 184.392 C 361.900 183.906,364.825 183.445,365.100 183.367 C 365.476 183.260,365.600 181.431,365.600 175.966 L 365.600 168.707 363.100 168.917 C 361.725 169.033,359.340 169.338,357.800 169.594 C 349.617 170.957,350.282 171.169,349.636 167.000 C 349.364 165.240,348.988 162.990,348.801 162.000 C 348.614 161.010,348.256 159.030,348.006 157.600 C 347.576 155.138,347.404 154.370,346.367 150.300 C 345.322 146.198,345.092 145.354,344.810 144.600 C 344.645 144.160,344.294 143.080,344.029 142.200 C 343.536 140.562,342.979 139.136,342.353 137.905 C 342.159 137.523,341.999 136.983,341.998 136.705 C 341.996 136.427,340.869 133.950,339.493 131.200 C 333.014 118.255,324.644 109.659,314.900 105.943 C 314.405 105.754,313.595 105.441,313.100 105.246 C 312.605 105.051,311.480 104.705,310.600 104.477 C 309.720 104.250,308.235 103.862,307.301 103.616 C 305.553 103.156,294.897 102.740,292.400 103.035 M199.200 200.000 L 199.200 293.600 207.000 293.600 L 214.800 293.600 214.800 200.000 L 214.800 106.400 207.000 106.400 L 199.200 106.400 199.200 200.000 M303.628 122.962 C 314.154 125.479,321.695 135.329,326.321 152.600 C 327.493 156.977,328.984 165.086,329.411 169.400 C 329.541 170.720,329.723 172.070,329.815 172.400 C 330.136 173.552,329.267 174.139,326.733 174.481 C 325.340 174.670,323.210 174.985,322.000 175.182 C 317.408 175.931,312.065 176.770,306.800 177.570 C 305.370 177.787,303.030 178.161,301.600 178.400 C 300.170 178.639,297.920 178.993,296.600 179.187 C 292.319 179.815,288.395 180.417,277.200 182.167 C 270.770 183.171,266.038 183.739,265.810 183.533 C 264.879 182.691,266.252 168.556,268.251 158.400 C 271.293 142.952,276.337 132.716,283.600 127.257 C 284.370 126.678,285.090 126.099,285.200 125.970 C 287.476 123.306,297.931 121.599,303.628 122.962 M330.887 192.800 C 331.709 203.695,330.107 229.803,328.002 239.800 C 327.817 240.680,327.451 242.480,327.190 243.800 C 326.928 245.120,326.575 246.650,326.404 247.200 C 326.233 247.750,325.871 249.010,325.600 250.000 C 324.995 252.211,324.449 253.885,323.906 255.200 C 323.679 255.750,323.355 256.560,323.186 257.000 C 318.011 270.466,309.330 277.539,297.920 277.586 C 279.988 277.659,269.347 260.515,266.026 226.200 C 265.307 218.767,264.794 209.648,264.797 204.343 C 264.800 198.566,264.537 198.960,268.800 198.348 C 271.567 197.951,275.084 197.413,279.000 196.788 C 280.320 196.577,282.570 196.229,284.000 196.015 C 285.430 195.801,287.680 195.453,289.000 195.242 C 292.614 194.665,296.697 194.022,299.600 193.573 C 301.030 193.352,303.280 192.998,304.600 192.788 C 305.920 192.577,308.170 192.233,309.600 192.023 C 311.030 191.813,313.370 191.444,314.800 191.203 C 318.456 190.587,321.687 190.095,325.389 189.590 C 327.143 189.351,328.665 189.068,328.772 188.961 C 329.899 187.834,330.609 189.124,330.887 192.800 " stroke="none" fill="#fc0707" fill-rule="evenodd"></path><path id="path2" d="M0.000 1.680 C 0.000 2.604,0.136 3.189,0.303 2.980 C 0.470 2.771,1.133 2.015,1.778 1.300 L 2.950 0.000 1.475 0.000 C 0.009 0.000,0.000 0.010,0.000 1.680 M398.422 1.496 C 399.180 2.318,399.845 3.068,399.900 3.162 C 399.955 3.256,400.000 2.583,400.000 1.667 C 400.000 0.012,399.990 0.000,398.522 0.000 L 397.043 0.000 398.422 1.496 M11.101 116.900 L 11.000 222.600 9.400 222.696 C 8.520 222.749,6.900 222.969,5.800 223.185 C 4.700 223.401,2.945 223.684,1.900 223.813 L 0.000 224.049 0.000 230.443 L 0.000 236.836 1.300 236.608 C 5.447 235.880,10.561 235.252,10.856 235.435 C 11.046 235.552,11.200 269.998,11.200 312.224 L 11.200 388.800 199.999 388.800 L 388.798 388.800 388.899 283.920 L 389.000 179.041 392.200 178.495 C 393.960 178.195,396.435 177.757,397.700 177.520 L 400.000 177.091 400.000 170.703 C 400.000 165.319,399.910 164.349,399.426 164.535 C 398.519 164.883,392.363 165.748,390.600 165.775 L 389.000 165.800 388.899 88.500 L 388.798 11.200 200.000 11.200 L 11.201 11.200 11.101 116.900 M304.703 102.592 C 311.407 103.611,319.616 106.693,322.309 109.201 C 322.781 109.640,323.352 110.000,323.580 110.000 C 324.391 110.000,332.663 118.655,334.665 121.600 C 337.431 125.668,340.042 130.421,341.806 134.600 C 343.050 137.547,343.145 137.793,343.655 139.400 C 343.935 140.280,344.307 141.171,344.482 141.380 C 344.657 141.589,344.800 142.086,344.800 142.485 C 344.800 142.884,344.958 143.523,345.151 143.905 C 345.494 144.585,345.794 145.559,346.779 149.200 C 348.112 154.128,349.390 160.705,350.041 166.000 C 350.298 168.090,350.554 169.855,350.609 169.922 C 350.665 169.989,353.974 169.552,357.964 168.951 C 362.405 168.282,365.356 168.002,365.575 168.229 C 365.771 168.433,366.061 171.962,366.218 176.071 L 366.504 183.541 364.952 183.934 C 364.098 184.150,360.821 184.732,357.670 185.227 L 351.940 186.127 352.212 194.164 C 352.787 211.117,350.605 236.320,347.569 247.800 C 346.670 251.199,346.492 251.856,346.000 253.600 C 345.375 255.818,344.059 259.922,343.627 261.000 C 343.451 261.440,343.103 262.295,342.854 262.900 C 342.604 263.505,342.242 264.405,342.049 264.900 C 332.213 290.119,309.673 302.799,286.000 296.431 C 285.230 296.223,284.150 295.937,283.600 295.794 C 280.628 295.020,274.545 291.865,271.447 289.490 C 268.024 286.867,260.800 279.213,260.800 278.209 C 260.800 278.070,260.109 276.931,259.265 275.678 C 250.194 262.216,244.754 239.280,243.747 210.249 L 243.498 203.098 241.249 203.355 C 240.012 203.496,238.010 203.793,236.800 204.015 C 235.590 204.237,233.115 204.527,231.300 204.660 L 228.000 204.900 228.000 197.058 C 228.000 189.243,228.003 189.215,228.900 189.041 C 229.395 188.945,231.060 188.672,232.600 188.434 C 234.140 188.197,237.097 187.732,239.170 187.401 C 241.244 187.071,243.066 186.800,243.219 186.800 C 243.618 186.800,243.994 184.165,244.448 178.200 C 245.096 169.671,246.028 162.854,247.538 155.600 C 247.744 154.610,248.100 152.900,248.330 151.800 C 249.874 144.402,256.530 127.091,258.071 126.467 C 258.252 126.393,258.400 126.161,258.400 125.951 C 258.400 124.042,268.237 112.523,271.528 110.579 C 272.228 110.166,272.800 109.686,272.800 109.514 C 272.800 109.341,273.070 109.200,273.400 109.200 C 273.730 109.200,274.000 109.041,274.000 108.847 C 274.000 108.652,274.315 108.390,274.700 108.264 C 275.085 108.138,276.120 107.610,277.000 107.091 C 283.979 102.973,295.208 101.149,304.703 102.592 M66.701 160.084 L 66.600 214.168 59.600 215.259 C 55.750 215.859,52.015 216.362,51.300 216.375 L 50.000 216.400 50.000 161.200 L 50.000 106.000 58.401 106.000 L 66.803 106.000 66.701 160.084 M116.400 156.176 C 116.400 195.883,116.296 206.418,115.900 206.667 C 115.625 206.840,114.410 207.109,113.200 207.264 C 111.990 207.419,109.740 207.739,108.200 207.975 C 106.660 208.211,104.005 208.516,102.300 208.653 L 99.200 208.903 99.200 157.718 C 99.200 129.566,99.320 106.413,99.467 106.267 C 99.613 106.120,103.483 106.000,108.067 106.000 L 116.400 106.000 116.400 156.176 M165.902 152.692 L 166.003 199.184 165.102 199.395 C 164.606 199.510,162.940 199.784,161.400 200.004 C 159.860 200.223,157.250 200.617,155.600 200.880 C 153.950 201.144,151.790 201.368,150.800 201.379 L 149.000 201.400 148.897 154.200 C 148.840 128.240,148.881 106.771,148.988 106.492 C 149.137 106.099,151.060 106.008,157.491 106.092 L 165.800 106.200 165.902 152.692 M215.400 200.000 L 215.400 293.800 206.900 293.908 L 198.400 294.016 198.400 200.000 L 198.400 105.984 206.900 106.092 L 215.400 106.200 215.400 200.000 M293.800 123.239 C 287.927 124.691,284.836 126.407,281.152 130.265 C 279.327 132.175,275.795 137.256,274.941 139.200 C 274.699 139.750,274.127 141.010,273.668 142.000 C 271.715 146.221,269.429 154.750,268.038 163.000 C 267.175 168.122,265.752 182.685,266.082 183.016 C 266.267 183.200,268.231 182.950,274.200 181.983 C 275.520 181.769,277.950 181.394,279.600 181.150 C 281.250 180.907,283.500 180.562,284.600 180.385 C 289.977 179.521,292.416 179.137,294.800 178.779 C 296.230 178.565,298.480 178.213,299.800 177.997 C 301.120 177.781,303.460 177.423,305.000 177.200 C 306.540 176.977,308.880 176.619,310.200 176.403 C 313.450 175.872,317.163 175.295,325.200 174.074 C 329.083 173.484,329.122 173.454,328.936 171.277 C 328.581 167.124,327.369 159.698,326.378 155.600 C 326.138 154.610,325.845 153.213,325.727 152.496 C 325.608 151.779,325.351 151.094,325.156 150.973 C 324.960 150.852,324.800 150.234,324.800 149.600 C 324.800 148.966,324.620 148.336,324.400 148.200 C 324.180 148.064,324.000 147.524,324.000 147.000 C 324.000 146.476,323.820 145.936,323.600 145.800 C 323.380 145.664,323.200 145.242,323.200 144.863 C 323.200 143.792,318.772 135.256,316.942 132.800 C 314.286 129.233,310.284 125.961,307.200 124.832 C 306.430 124.550,305.440 124.170,305.000 123.987 C 302.840 123.089,296.200 122.646,293.800 123.239 M326.600 190.025 C 325.500 190.196,323.250 190.544,321.600 190.798 C 319.950 191.052,317.610 191.413,316.400 191.600 C 315.190 191.787,312.940 192.135,311.400 192.372 C 309.860 192.610,307.520 192.977,306.200 193.188 C 304.880 193.398,302.540 193.772,301.000 194.018 C 299.460 194.264,297.570 194.545,296.800 194.642 C 296.030 194.738,294.500 194.984,293.400 195.187 C 292.300 195.390,290.050 195.757,288.400 196.003 C 286.750 196.249,284.410 196.612,283.200 196.809 C 280.684 197.220,277.133 197.772,272.800 198.423 C 271.150 198.672,268.827 199.057,267.637 199.279 L 265.474 199.683 265.734 209.184 C 266.112 223.012,267.151 232.938,269.444 244.600 C 272.352 259.391,279.599 271.037,288.400 275.062 C 293.368 277.334,300.796 277.760,305.000 276.013 C 305.440 275.830,306.430 275.450,307.200 275.168 C 312.948 273.064,319.188 265.748,322.354 257.400 C 322.854 256.080,323.430 254.687,323.632 254.305 C 323.834 253.923,324.000 253.336,324.000 253.000 C 324.000 252.664,324.158 252.077,324.351 251.695 C 324.935 250.539,325.600 248.196,325.600 247.295 C 325.600 246.829,325.761 246.348,325.958 246.226 C 326.155 246.105,326.417 245.329,326.542 244.503 C 326.667 243.676,326.962 241.920,327.198 240.600 C 329.317 228.751,329.962 220.887,330.256 203.300 L 330.485 189.600 329.543 189.656 C 329.024 189.687,327.700 189.853,326.600 190.025 M165.902 253.100 L 165.800 293.800 157.400 293.800 L 149.000 293.800 148.898 254.551 C 148.816 222.866,148.896 215.219,149.313 214.872 C 149.597 214.637,151.173 214.260,152.815 214.035 C 160.706 212.955,161.741 212.792,161.930 212.603 C 162.042 212.491,163.004 212.400,164.069 212.400 L 166.004 212.400 165.902 253.100 M116.400 256.808 L 116.400 294.016 107.900 293.908 L 99.400 293.800 99.298 258.092 L 99.196 222.385 100.098 222.032 C 100.594 221.837,102.530 221.470,104.400 221.216 C 108.387 220.675,113.147 219.978,114.000 219.810 C 114.330 219.746,115.005 219.672,115.500 219.646 L 116.400 219.600 116.400 256.808 M66.800 260.600 L 66.800 294.000 58.400 294.000 L 50.000 294.000 50.000 261.824 C 50.000 241.257,50.141 229.560,50.392 229.405 C 50.751 229.183,52.484 228.921,59.517 228.022 C 60.901 227.845,62.146 227.587,62.283 227.450 C 62.421 227.312,63.493 227.200,64.667 227.200 L 66.800 227.200 66.800 260.600 M0.000 398.320 C 0.000 399.990,0.009 400.000,1.475 400.000 L 2.950 400.000 1.778 398.700 C 1.133 397.985,0.470 397.229,0.303 397.020 C 0.136 396.811,0.000 397.396,0.000 398.320 M398.454 398.434 L 397.107 400.000 398.554 400.000 C 399.974 400.000,400.000 399.972,400.000 398.400 C 400.000 397.520,399.955 396.815,399.900 396.834 C 399.845 396.852,399.194 397.572,398.454 398.434 " stroke="none" fill="#fbfbfb" fill-rule="evenodd"></path><path id="path3" d="M1.775 1.300 L 0.600 2.600 1.900 1.425 C 2.615 0.779,3.200 0.194,3.200 0.125 C 3.200 -0.184,2.870 0.088,1.775 1.300 M398.047 1.382 C 398.623 2.052,399.293 2.960,399.535 3.400 C 399.777 3.840,399.981 3.968,399.988 3.685 C 399.995 3.401,399.325 2.493,398.500 1.667 C 397.665 0.830,397.464 0.704,398.047 1.382 M199.777 11.100 C 350.165 11.180,388.625 11.302,388.907 11.700 C 389.169 12.070,389.218 12.044,389.097 11.600 C 388.952 11.068,367.597 11.000,199.967 10.999 L 11.000 10.999 199.777 11.100 M295.715 102.296 C 296.988 102.376,298.968 102.375,300.115 102.294 C 301.262 102.214,300.220 102.149,297.800 102.150 C 295.380 102.151,294.442 102.216,295.715 102.296 M291.300 102.676 C 291.685 102.776,292.315 102.776,292.700 102.676 C 293.085 102.575,292.770 102.493,292.000 102.493 C 291.230 102.493,290.915 102.575,291.300 102.676 M288.500 103.076 C 288.885 103.176,289.515 103.176,289.900 103.076 C 290.285 102.975,289.970 102.893,289.200 102.893 C 288.430 102.893,288.115 102.975,288.500 103.076 M305.700 103.076 C 306.085 103.176,306.715 103.176,307.100 103.076 C 307.485 102.975,307.170 102.893,306.400 102.893 C 305.630 102.893,305.315 102.975,305.700 103.076 M308.600 103.600 C 309.040 103.789,309.760 103.938,310.200 103.932 C 310.843 103.923,310.804 103.857,310.000 103.600 C 308.632 103.162,307.581 103.162,308.600 103.600 M312.433 104.535 C 312.819 104.847,316.000 105.977,316.000 105.802 C 316.000 105.563,313.251 104.400,312.684 104.400 C 312.455 104.400,312.342 104.461,312.433 104.535 M279.300 105.834 C 278.585 106.146,278.000 106.494,278.000 106.607 C 278.000 106.815,280.806 105.727,281.146 105.387 C 281.486 105.047,280.620 105.257,279.300 105.834 M99.467 106.267 C 99.096 106.637,99.129 208.800,99.500 208.800 C 99.665 208.800,99.754 185.816,99.697 157.726 C 99.615 117.048,99.696 106.586,100.097 106.332 C 100.393 106.144,100.422 106.010,100.167 106.006 C 99.928 106.003,99.613 106.120,99.467 106.267 M149.067 106.267 C 148.696 106.637,148.729 201.109,149.100 201.338 C 149.265 201.440,149.400 180.031,149.400 153.762 C 149.400 127.493,149.385 106.000,149.367 106.000 C 149.348 106.000,149.213 106.120,149.067 106.267 M165.098 106.292 C 165.490 106.570,165.619 116.556,165.701 153.023 L 165.805 199.400 165.803 152.833 C 165.800 111.782,165.729 106.247,165.200 106.103 C 164.758 105.982,164.731 106.032,165.098 106.292 M198.400 200.000 C 198.400 289.269,198.435 293.998,199.100 293.968 C 199.518 293.950,199.599 293.856,199.300 293.735 C 198.902 293.574,198.800 274.452,198.800 200.000 C 198.800 125.548,198.902 106.426,199.300 106.265 C 199.599 106.144,199.518 106.050,199.100 106.032 C 198.435 106.002,198.400 110.731,198.400 200.000 M214.790 106.263 C 215.068 106.401,215.200 136.522,215.200 200.000 C 215.200 263.478,215.068 293.599,214.790 293.737 C 214.565 293.849,214.610 293.894,214.890 293.837 C 215.302 293.753,215.400 275.646,215.400 200.000 C 215.400 124.354,215.302 106.247,214.890 106.163 C 214.610 106.107,214.565 106.151,214.790 106.263 M316.433 106.149 C 316.845 106.517,319.200 107.600,319.200 107.421 C 319.200 107.190,316.982 106.000,316.553 106.000 C 316.396 106.000,316.342 106.067,316.433 106.149 M276.000 107.636 C 275.336 108.179,275.269 108.315,275.800 108.040 C 277.105 107.366,277.828 106.812,277.400 106.815 C 277.180 106.817,276.550 107.186,276.000 107.636 M320.886 108.600 C 321.695 109.150,322.499 109.600,322.672 109.600 C 322.844 109.600,322.323 109.150,321.514 108.600 C 320.705 108.050,319.901 107.600,319.728 107.600 C 319.556 107.600,320.077 108.050,320.886 108.600 M324.493 111.167 C 325.212 111.809,325.865 112.268,325.946 112.187 C 326.131 112.002,323.907 110.030,323.494 110.013 C 323.325 110.006,323.775 110.525,324.493 111.167 M328.811 115.000 C 330.236 116.540,332.090 118.610,332.931 119.600 C 334.084 120.958,334.014 120.810,332.647 119.000 C 331.650 117.680,329.796 115.610,328.527 114.400 L 326.221 112.200 328.811 115.000 M265.594 115.900 C 264.232 117.385,262.762 119.140,262.329 119.800 C 261.896 120.460,262.230 120.191,263.071 119.203 C 263.912 118.215,265.481 116.460,266.558 115.303 C 267.635 114.146,268.416 113.200,268.293 113.200 C 268.171 113.200,266.956 114.415,265.594 115.900 M292.800 123.200 C 292.008 123.454,291.967 123.520,292.600 123.520 C 293.040 123.520,293.850 123.376,294.400 123.200 C 295.192 122.946,295.233 122.880,294.600 122.880 C 294.160 122.880,293.350 123.024,292.800 123.200 M301.400 123.200 C 301.840 123.389,302.650 123.538,303.200 123.532 L 304.200 123.520 303.200 123.200 C 302.650 123.024,301.840 122.874,301.400 122.868 L 300.600 122.856 301.400 123.200 M284.968 126.561 C 282.578 128.171,278.178 132.857,276.888 135.167 C 275.595 137.483,276.068 137.192,277.648 134.700 C 279.436 131.879,282.874 128.293,285.254 126.765 C 286.934 125.687,287.507 125.200,287.095 125.200 C 287.037 125.200,286.080 125.813,284.968 126.561 M312.438 128.100 C 312.532 128.155,313.327 128.830,314.204 129.600 L 315.800 131.000 314.422 129.500 C 313.663 128.675,312.868 128.000,312.655 128.000 C 312.441 128.000,312.344 128.045,312.438 128.100 M255.781 130.437 C 255.429 131.118,255.212 131.745,255.299 131.832 C 255.386 131.919,255.756 131.362,256.122 130.595 C 256.944 128.870,256.659 128.738,255.781 130.437 M317.667 133.807 C 318.034 134.243,319.178 136.220,320.209 138.200 C 322.263 142.145,322.686 142.805,321.997 140.992 C 321.222 138.950,318.431 134.122,317.698 133.554 C 317.041 133.045,317.039 133.060,317.667 133.807 M345.844 147.000 C 346.173 148.471,346.402 148.790,346.394 147.767 C 346.391 147.345,346.205 146.730,345.982 146.400 C 345.685 145.962,345.648 146.124,345.844 147.000 M249.429 147.429 C 249.281 148.015,249.238 148.572,249.332 148.666 C 249.427 148.760,249.624 148.358,249.771 147.771 C 249.919 147.185,249.962 146.628,249.868 146.534 C 249.773 146.440,249.576 146.842,249.429 147.429 M346.658 150.000 C 346.975 151.725,347.202 152.051,347.194 150.767 C 347.191 150.235,347.011 149.530,346.794 149.200 C 346.518 148.778,346.477 149.015,346.658 150.000 M248.629 150.229 C 248.481 150.815,248.451 151.384,248.561 151.494 C 248.671 151.604,248.881 151.215,249.029 150.629 C 249.176 150.042,249.206 149.473,249.096 149.363 C 248.986 149.253,248.776 149.642,248.629 150.229 M324.828 149.876 C 324.813 150.358,324.980 150.864,325.200 151.000 C 325.673 151.292,325.673 150.901,325.200 149.800 C 324.869 149.029,324.855 149.031,324.828 149.876 M269.873 152.153 C 269.723 152.545,269.611 153.166,269.625 153.533 C 269.642 153.975,269.781 153.874,270.037 153.234 C 270.249 152.703,270.361 152.082,270.285 151.854 C 270.209 151.627,270.024 151.761,269.873 152.153 M325.606 152.633 C 325.609 153.055,325.795 153.670,326.018 154.000 C 326.315 154.438,326.352 154.276,326.156 153.400 C 325.827 151.929,325.598 151.610,325.606 152.633 M347.458 153.200 C 347.775 154.925,348.002 155.251,347.994 153.967 C 347.991 153.435,347.811 152.730,347.594 152.400 C 347.318 151.978,347.277 152.215,347.458 153.200 M247.800 154.000 C 247.648 154.691,247.607 155.341,247.709 155.442 C 247.811 155.544,248.009 155.053,248.150 154.350 C 248.483 152.683,248.160 152.360,247.800 154.000 M269.029 155.829 C 268.881 156.415,268.838 156.972,268.932 157.066 C 269.027 157.160,269.224 156.758,269.371 156.171 C 269.519 155.585,269.562 155.028,269.468 154.934 C 269.373 154.840,269.176 155.242,269.029 155.829 M326.468 155.800 C 326.462 156.240,326.611 156.960,326.800 157.400 C 327.238 158.419,327.238 157.368,326.800 156.000 C 326.543 155.196,326.477 155.157,326.468 155.800 M247.049 157.415 C 246.912 157.773,246.816 158.456,246.836 158.933 C 246.862 159.547,246.985 159.408,247.259 158.456 C 247.657 157.072,247.494 156.258,247.049 157.415 M268.200 160.000 C 268.046 160.910,268.004 161.738,268.107 161.840 C 268.210 161.943,268.413 161.277,268.560 160.360 C 268.707 159.443,268.748 158.615,268.653 158.520 C 268.558 158.424,268.354 159.090,268.200 160.000 M327.246 160.000 C 327.227 160.550,327.387 161.270,327.600 161.600 C 328.094 162.364,328.094 161.542,327.600 160.000 L 327.280 159.000 327.246 160.000 M246.178 162.178 C 246.027 162.981,245.994 163.727,246.104 163.837 C 246.214 163.947,246.427 163.381,246.578 162.578 C 246.728 161.775,246.762 161.028,246.652 160.918 C 246.542 160.808,246.328 161.375,246.178 162.178 M349.247 162.433 C 349.273 163.185,349.441 164.340,349.620 165.000 C 349.835 165.789,349.870 165.378,349.723 163.800 C 349.477 161.155,349.173 160.281,349.247 162.433 M267.469 163.956 C 267.321 164.695,267.220 165.683,267.244 166.150 C 267.268 166.618,267.447 166.190,267.642 165.200 C 267.837 164.210,267.938 163.223,267.867 163.006 C 267.796 162.790,267.617 163.217,267.469 163.956 M328.075 164.600 C 328.065 165.260,328.211 166.160,328.400 166.600 L 328.744 167.400 328.725 166.600 C 328.714 166.160,328.568 165.260,328.400 164.600 L 328.095 163.400 328.075 164.600 M398.400 164.400 C 397.576 164.664,397.541 164.726,398.200 164.754 C 398.640 164.773,399.270 164.613,399.600 164.400 C 400.301 163.947,399.814 163.947,398.400 164.400 M395.105 165.083 C 395.602 165.179,396.322 165.175,396.705 165.075 C 397.087 164.975,396.680 164.896,395.800 164.901 C 394.920 164.905,394.607 164.987,395.105 165.083 M389.160 165.720 C 389.346 165.906,390.106 165.996,390.849 165.919 C 392.167 165.783,392.158 165.775,390.510 165.580 C 389.581 165.471,388.973 165.533,389.160 165.720 M245.476 167.210 C 245.330 167.755,245.228 168.740,245.249 169.400 C 245.280 170.357,245.359 170.236,245.642 168.800 C 246.029 166.833,245.902 165.617,245.476 167.210 M350.067 168.513 C 349.987 170.322,350.557 170.658,352.695 170.063 L 354.200 169.643 352.327 169.863 L 350.453 170.083 350.294 168.541 L 350.134 167.000 350.067 168.513 M361.600 168.400 C 360.250 168.684,360.243 168.695,361.400 168.700 C 362.060 168.703,363.140 168.568,363.800 168.400 C 365.460 167.978,363.607 167.978,361.600 168.400 M365.595 170.918 L 365.791 173.800 365.916 171.241 C 365.985 169.833,365.897 168.536,365.721 168.359 C 365.544 168.181,365.488 169.333,365.595 170.918 M328.963 171.087 C 329.071 173.017,329.002 173.202,328.040 173.555 C 327.120 173.893,327.098 173.940,327.851 173.968 C 329.172 174.017,329.523 173.227,329.167 171.000 L 328.847 169.000 328.963 171.087 M355.300 169.476 C 355.685 169.576,356.315 169.576,356.700 169.476 C 357.085 169.375,356.770 169.293,356.000 169.293 C 355.230 169.293,354.915 169.375,355.300 169.476 M266.520 173.200 C 266.520 174.410,266.595 174.905,266.687 174.300 C 266.778 173.695,266.778 172.705,266.687 172.100 C 266.595 171.495,266.520 171.990,266.520 173.200 M244.672 173.804 C 244.527 174.682,244.430 176.210,244.456 177.200 C 244.493 178.603,244.580 178.339,244.851 176.000 C 245.228 172.753,245.101 171.205,244.672 173.804 M323.000 174.403 C 322.485 174.626,322.913 174.667,324.200 174.518 C 325.300 174.391,326.275 174.223,326.367 174.144 C 326.714 173.845,323.764 174.072,323.000 174.403 M317.800 175.210 C 317.266 175.447,317.598 175.486,318.800 175.327 C 319.790 175.196,320.675 175.024,320.767 174.944 C 321.114 174.643,318.564 174.872,317.800 175.210 M312.600 176.020 C 312.061 176.265,312.454 176.305,313.800 176.141 C 314.900 176.007,315.875 175.831,315.967 175.749 C 316.317 175.436,313.361 175.674,312.600 176.020 M366.148 179.600 C 366.148 181.910,366.214 182.855,366.295 181.700 C 366.376 180.545,366.376 178.655,366.295 177.500 C 366.214 176.345,366.148 177.290,366.148 179.600 M266.109 177.600 C 266.109 178.590,266.187 178.995,266.282 178.500 C 266.378 178.005,266.378 177.195,266.282 176.700 C 266.187 176.205,266.109 176.610,266.109 177.600 M307.800 176.810 C 307.266 177.047,307.598 177.086,308.800 176.927 C 309.790 176.796,310.675 176.624,310.767 176.544 C 311.114 176.243,308.564 176.472,307.800 176.810 M302.200 177.600 L 301.400 177.944 302.200 177.925 C 302.640 177.914,303.540 177.768,304.200 177.600 L 305.400 177.295 304.200 177.275 C 303.540 177.265,302.640 177.411,302.200 177.600 M397.600 177.591 C 396.794 177.842,396.930 177.895,398.300 177.866 C 399.235 177.846,400.000 177.688,400.000 177.515 C 400.000 177.135,398.960 177.167,397.600 177.591 M297.400 178.400 L 296.600 178.744 297.400 178.725 C 297.840 178.714,298.740 178.568,299.400 178.400 L 300.600 178.095 299.400 178.075 C 298.740 178.065,297.840 178.211,297.400 178.400 M392.400 178.420 C 391.726 178.649,392.051 178.684,393.400 178.528 C 394.500 178.401,395.475 178.231,395.567 178.149 C 395.882 177.868,393.399 178.080,392.400 178.420 M292.000 179.200 L 291.000 179.520 292.000 179.513 C 292.550 179.509,293.540 179.368,294.200 179.200 L 295.400 178.895 294.200 178.887 C 293.540 178.883,292.550 179.024,292.000 179.200 M265.759 181.396 C 265.792 182.998,265.940 183.405,266.508 183.456 C 266.963 183.496,267.006 183.453,266.629 183.334 C 266.257 183.217,265.983 182.463,265.880 181.275 L 265.718 179.400 265.759 181.396 M287.000 180.000 L 286.200 180.344 287.000 180.325 C 287.440 180.314,288.340 180.168,289.000 180.000 L 290.200 179.695 289.000 179.675 C 288.340 179.665,287.440 179.811,287.000 180.000 M282.000 180.800 L 281.000 181.120 282.000 181.120 C 282.550 181.120,283.450 180.976,284.000 180.800 L 285.000 180.480 284.000 180.480 C 283.450 180.480,282.550 180.624,282.000 180.800 M276.600 181.600 C 275.530 181.872,275.508 181.905,276.400 181.905 C 276.950 181.905,277.940 181.768,278.600 181.600 C 279.670 181.328,279.692 181.295,278.800 181.295 C 278.250 181.295,277.260 181.432,276.600 181.600 M243.899 183.968 C 243.540 187.035,243.825 186.699,241.174 187.179 L 239.000 187.574 241.176 187.397 C 244.061 187.162,244.473 186.687,244.322 183.764 L 244.200 181.400 243.899 183.968 M271.600 182.400 L 270.600 182.720 271.600 182.720 C 272.150 182.720,273.050 182.576,273.600 182.400 L 274.600 182.080 273.600 182.080 C 273.050 182.080,272.150 182.224,271.600 182.400 M363.200 184.000 C 362.408 184.254,362.367 184.320,363.000 184.320 C 363.440 184.320,364.250 184.176,364.800 184.000 C 365.592 183.746,365.633 183.680,365.000 183.680 C 364.560 183.680,363.750 183.824,363.200 184.000 M358.200 184.800 C 357.130 185.072,357.108 185.105,358.000 185.105 C 358.550 185.105,359.540 184.968,360.200 184.800 C 361.270 184.528,361.292 184.495,360.400 184.495 C 359.850 184.495,358.860 184.632,358.200 184.800 M353.000 185.550 L 351.800 185.806 351.774 189.104 L 351.748 192.402 351.890 189.244 L 352.031 186.086 354.315 185.694 C 355.572 185.479,356.060 185.301,355.400 185.299 C 354.740 185.296,353.660 185.410,353.000 185.550 M232.800 188.413 C 232.154 188.629,232.580 188.666,234.000 188.519 C 235.210 188.394,236.275 188.226,236.367 188.146 C 236.687 187.865,233.791 188.083,232.800 188.413 M228.500 189.065 C 228.225 189.176,228.000 189.454,228.000 189.682 C 228.000 189.969,228.155 189.969,228.500 189.684 C 228.775 189.457,229.540 189.192,230.200 189.095 L 231.400 188.920 230.200 188.892 C 229.540 188.876,228.775 188.954,228.500 189.065 M327.200 189.600 C 325.850 189.884,325.843 189.895,327.000 189.900 C 327.660 189.903,328.740 189.768,329.400 189.600 C 331.060 189.178,329.207 189.178,327.200 189.600 M322.200 190.400 L 321.000 190.705 322.200 190.725 C 322.860 190.735,323.760 190.589,324.200 190.400 L 325.000 190.056 324.200 190.075 C 323.760 190.086,322.860 190.232,322.200 190.400 M317.000 191.200 L 315.800 191.505 317.000 191.525 C 317.660 191.535,318.560 191.389,319.000 191.200 L 319.800 190.856 319.000 190.875 C 318.560 190.886,317.660 191.032,317.000 191.200 M311.600 192.000 L 310.200 192.295 311.600 192.319 C 312.370 192.333,313.360 192.189,313.800 192.000 L 314.600 191.656 313.800 191.681 C 313.360 191.694,312.370 191.838,311.600 192.000 M306.800 192.800 C 305.433 193.088,305.428 193.095,306.600 193.119 C 307.260 193.133,308.160 192.989,308.600 192.800 C 309.562 192.387,308.764 192.387,306.800 192.800 M301.400 193.600 L 299.800 193.886 301.200 193.903 C 301.970 193.913,303.050 193.776,303.600 193.600 C 304.885 193.188,303.699 193.188,301.400 193.600 M352.165 200.200 C 352.166 204.160,352.226 205.726,352.298 203.680 C 352.371 201.634,352.371 198.394,352.298 196.480 C 352.224 194.566,352.165 196.240,352.165 200.200 M296.400 194.400 L 295.000 194.695 296.400 194.719 C 297.170 194.733,298.160 194.589,298.600 194.400 L 299.400 194.056 298.600 194.081 C 298.160 194.094,297.170 194.238,296.400 194.400 M330.559 200.000 C 330.559 203.190,330.621 204.495,330.697 202.900 C 330.773 201.305,330.773 198.695,330.697 197.100 C 330.621 195.505,330.559 196.810,330.559 200.000 M291.400 195.200 L 289.800 195.486 291.200 195.515 C 291.970 195.531,292.960 195.389,293.400 195.200 C 294.343 194.795,293.662 194.795,291.400 195.200 M286.200 196.000 L 284.600 196.286 286.000 196.303 C 286.770 196.313,287.850 196.176,288.400 196.000 C 289.685 195.588,288.499 195.588,286.200 196.000 M281.000 196.800 L 279.400 197.086 280.800 197.103 C 281.570 197.113,282.650 196.976,283.200 196.800 C 284.485 196.388,283.299 196.388,281.000 196.800 M275.105 197.883 C 275.602 197.979,276.322 197.975,276.705 197.875 C 277.087 197.775,276.680 197.696,275.800 197.701 C 274.920 197.705,274.607 197.787,275.105 197.883 M269.905 198.683 C 270.402 198.779,271.122 198.775,271.505 198.675 C 271.887 198.575,271.480 198.496,270.600 198.501 C 269.720 198.505,269.407 198.587,269.905 198.683 M265.375 199.721 C 265.265 200.008,265.231 202.573,265.301 205.421 L 265.426 210.600 265.513 205.129 C 265.590 200.299,265.682 199.637,266.300 199.476 C 266.956 199.304,266.955 199.290,266.287 199.246 C 265.896 199.221,265.485 199.435,265.375 199.721 M156.600 200.400 C 155.530 200.672,155.508 200.705,156.400 200.705 C 156.950 200.705,157.940 200.568,158.600 200.400 C 159.670 200.128,159.692 200.095,158.800 200.095 C 158.250 200.095,157.260 200.232,156.600 200.400 M151.400 201.200 C 150.330 201.472,150.308 201.505,151.200 201.505 C 151.750 201.505,152.740 201.368,153.400 201.200 C 154.470 200.928,154.492 200.895,153.600 200.895 C 153.050 200.895,152.060 201.032,151.400 201.200 M242.400 202.800 L 241.400 203.120 242.500 203.160 C 243.105 203.182,243.600 203.020,243.600 202.800 C 243.600 202.580,243.555 202.418,243.500 202.440 C 243.445 202.462,242.950 202.624,242.400 202.800 M237.400 203.600 C 236.322 203.874,236.302 203.906,237.200 203.913 C 237.750 203.917,238.650 203.776,239.200 203.600 C 240.544 203.169,239.092 203.169,237.400 203.600 M243.635 209.033 C 243.654 212.095,243.808 215.500,243.977 216.600 C 244.145 217.700,244.195 215.270,244.086 211.200 C 243.853 202.431,243.585 201.146,243.635 209.033 M232.200 204.400 L 231.000 204.705 232.200 204.713 C 232.860 204.717,233.850 204.576,234.400 204.400 L 235.400 204.080 234.400 204.087 C 233.850 204.091,232.860 204.232,232.200 204.400 M114.400 206.620 C 112.783 207.083,112.725 207.139,113.824 207.168 C 114.496 207.186,115.396 206.936,115.824 206.613 C 116.251 206.290,116.510 206.043,116.400 206.065 C 116.290 206.087,115.390 206.336,114.400 206.620 M108.600 207.600 L 107.400 207.905 108.600 207.925 C 109.260 207.935,110.160 207.789,110.600 207.600 L 111.400 207.256 110.600 207.275 C 110.160 207.286,109.260 207.432,108.600 207.600 M351.751 212.000 C 351.751 214.530,351.816 215.565,351.896 214.300 C 351.975 213.035,351.975 210.965,351.896 209.700 C 351.816 208.435,351.751 209.470,351.751 212.000 M103.000 208.400 L 101.400 208.686 102.800 208.703 C 103.570 208.713,104.650 208.576,105.200 208.400 C 106.485 207.988,105.299 207.988,103.000 208.400 M161.200 212.800 L 160.200 213.120 161.200 213.120 C 161.750 213.120,162.650 212.976,163.200 212.800 L 164.200 212.480 163.200 212.480 C 162.650 212.480,161.750 212.624,161.200 212.800 M165.400 253.162 C 165.400 275.581,165.535 293.840,165.700 293.738 C 165.865 293.636,166.000 275.293,166.000 252.976 C 166.000 230.659,165.865 212.400,165.700 212.400 C 165.535 212.400,165.400 230.743,165.400 253.162 M265.748 216.400 C 265.748 218.710,265.814 219.655,265.895 218.500 C 265.976 217.345,265.976 215.455,265.895 214.300 C 265.814 213.145,265.748 214.090,265.748 216.400 M66.400 213.533 C 66.400 213.790,65.905 214.025,65.300 214.054 C 64.290 214.104,64.278 214.124,65.146 214.288 C 66.119 214.473,67.160 213.827,66.673 213.340 C 66.523 213.190,66.400 213.277,66.400 213.533 M156.000 213.600 L 155.000 213.920 156.000 213.920 C 156.550 213.920,157.450 213.776,158.000 213.600 L 159.000 213.280 158.000 213.280 C 157.450 213.280,156.550 213.424,156.000 213.600 M329.813 217.922 C 329.646 220.408,329.602 222.535,329.715 222.648 C 329.985 222.918,330.545 214.628,330.303 213.936 C 330.200 213.641,329.980 215.435,329.813 217.922 M150.800 214.293 C 148.694 214.680,148.800 212.551,148.800 254.425 C 148.800 275.945,148.935 293.636,149.100 293.738 C 149.265 293.840,149.400 276.170,149.400 254.470 L 149.400 215.017 151.600 214.554 C 153.664 214.118,152.974 213.893,150.800 214.293 M57.400 215.220 C 56.611 215.435,57.022 215.470,58.600 215.323 C 59.920 215.200,61.075 215.032,61.167 214.950 C 61.464 214.682,58.634 214.885,57.400 215.220 M52.200 216.020 C 51.411 216.235,51.822 216.270,53.400 216.123 C 54.720 216.000,55.875 215.832,55.967 215.750 C 56.264 215.482,53.434 215.685,52.200 216.020 M351.011 222.211 C 350.853 224.106,350.809 225.742,350.913 225.846 C 351.017 225.950,351.232 224.485,351.389 222.589 C 351.547 220.694,351.591 219.058,351.487 218.954 C 351.383 218.850,351.168 220.315,351.011 222.211 M114.400 219.753 C 114.400 219.838,114.850 219.993,115.400 220.098 C 115.950 220.203,116.400 220.134,116.400 219.945 C 116.400 219.755,115.950 219.600,115.400 219.600 C 114.850 219.600,114.400 219.669,114.400 219.753 M111.905 220.283 C 112.402 220.379,113.122 220.375,113.505 220.275 C 113.887 220.175,113.480 220.096,112.600 220.101 C 111.720 220.105,111.407 220.187,111.905 220.283 M106.305 221.083 C 106.802 221.179,107.522 221.175,107.905 221.075 C 108.287 220.975,107.880 220.896,107.000 220.901 C 106.120 220.905,105.807 220.987,106.305 221.083 M266.109 222.400 C 266.109 223.390,266.187 223.795,266.282 223.300 C 266.378 222.805,266.378 221.995,266.282 221.500 C 266.187 221.005,266.109 221.410,266.109 222.400 M10.573 221.973 C 10.368 222.171,9.750 222.413,9.200 222.512 C 8.347 222.665,8.387 222.699,9.476 222.746 C 10.178 222.775,10.871 222.608,11.016 222.373 C 11.366 221.807,11.046 221.518,10.573 221.973 M99.873 222.100 C 98.972 222.763,99.009 293.654,99.910 293.837 C 100.191 293.894,100.236 293.849,100.010 293.737 C 99.358 293.413,99.448 223.024,100.102 222.482 C 100.377 222.253,101.232 221.989,102.002 221.897 L 103.400 221.728 101.976 221.664 C 101.194 221.629,100.247 221.825,99.873 222.100 M244.447 223.433 C 244.473 224.515,244.640 225.940,244.817 226.600 C 245.014 227.332,245.053 226.631,244.918 224.800 C 244.663 221.355,244.377 220.525,244.447 223.433 M4.000 223.200 C 2.633 223.488,2.628 223.495,3.800 223.519 C 4.460 223.533,5.360 223.389,5.800 223.200 C 6.762 222.787,5.964 222.787,4.000 223.200 M266.524 227.000 C 266.526 228.320,266.601 228.812,266.690 228.093 C 266.779 227.374,266.777 226.294,266.686 225.693 C 266.595 225.092,266.522 225.680,266.524 227.000 M328.987 227.787 C 328.831 229.244,328.793 230.526,328.903 230.636 C 329.013 230.746,329.231 229.644,329.387 228.187 C 329.543 226.729,329.580 225.447,329.470 225.337 C 329.360 225.227,329.143 226.329,328.987 227.787 M61.800 227.620 C 61.261 227.865,61.654 227.905,63.000 227.741 C 64.100 227.607,65.075 227.431,65.167 227.349 C 65.517 227.036,62.561 227.274,61.800 227.620 M56.600 228.400 L 55.800 228.744 56.600 228.725 C 57.040 228.714,57.940 228.568,58.600 228.400 L 59.800 228.095 58.600 228.075 C 57.940 228.065,57.040 228.211,56.600 228.400 M350.185 230.185 C 350.030 231.423,349.990 232.523,350.095 232.629 C 350.201 232.734,350.407 231.801,350.554 230.554 C 350.700 229.307,350.741 228.207,350.643 228.110 C 350.546 228.012,350.339 228.946,350.185 230.185 M51.400 229.085 C 50.960 229.191,50.435 229.434,50.234 229.625 C 50.033 229.816,50.483 229.810,51.234 229.611 C 51.985 229.413,53.050 229.174,53.600 229.080 C 54.459 228.933,54.431 228.908,53.400 228.901 C 52.740 228.896,51.840 228.979,51.400 229.085 M245.286 230.800 C 245.283 231.570,245.424 232.650,245.600 233.200 C 246.050 234.604,246.065 233.137,245.623 231.000 L 245.292 229.400 245.286 230.800 M266.893 230.800 C 266.893 231.570,266.975 231.885,267.076 231.500 C 267.176 231.115,267.176 230.485,267.076 230.100 C 266.975 229.715,266.893 230.030,266.893 230.800 M328.276 233.610 C 328.130 234.155,328.027 235.050,328.046 235.600 C 328.071 236.318,328.184 236.157,328.449 235.027 C 328.855 233.295,328.700 232.025,328.276 233.610 M267.240 234.233 C 267.262 234.875,267.433 235.850,267.620 236.400 C 267.849 237.074,267.884 236.749,267.728 235.400 C 267.469 233.150,267.179 232.459,267.240 234.233 M7.105 235.883 C 7.602 235.979,8.322 235.975,8.705 235.875 C 9.087 235.775,8.680 235.696,7.800 235.701 C 6.920 235.705,6.607 235.787,7.105 235.883 M2.600 236.400 L 1.000 236.686 2.400 236.696 C 3.170 236.701,4.340 236.568,5.000 236.400 C 6.628 235.986,4.913 235.986,2.600 236.400 M246.068 236.800 C 246.062 237.350,246.211 238.160,246.400 238.600 L 246.744 239.400 246.732 238.600 C 246.726 238.160,246.576 237.350,246.400 236.800 L 246.080 235.800 246.068 236.800 M349.293 237.600 C 349.293 238.370,349.375 238.685,349.476 238.300 C 349.576 237.915,349.576 237.285,349.476 236.900 C 349.375 236.515,349.293 236.830,349.293 237.600 M268.087 238.800 C 268.083 239.350,268.224 240.250,268.400 240.800 C 268.831 242.144,268.831 240.692,268.400 239.000 C 268.126 237.922,268.094 237.902,268.087 238.800 M327.449 238.615 C 327.312 238.973,327.216 239.656,327.236 240.133 C 327.262 240.747,327.385 240.608,327.659 239.656 C 328.057 238.272,327.894 237.458,327.449 238.615 M348.669 240.356 C 348.521 241.095,348.420 242.082,348.444 242.550 C 348.468 243.018,348.647 242.590,348.842 241.600 C 349.037 240.610,349.138 239.623,349.067 239.406 C 348.996 239.190,348.817 239.617,348.669 240.356 M246.868 241.200 C 246.862 241.750,247.011 242.560,247.200 243.000 L 247.544 243.800 247.532 243.000 C 247.526 242.560,247.376 241.750,247.200 241.200 L 246.880 240.200 246.868 241.200 M326.649 243.015 C 326.512 243.373,326.415 243.966,326.434 244.333 C 326.453 244.700,326.627 244.469,326.821 243.820 C 327.198 242.558,327.065 241.933,326.649 243.015 M268.856 243.400 C 268.856 243.840,269.011 244.560,269.200 245.000 L 269.544 245.800 269.544 245.000 C 269.544 244.560,269.389 243.840,269.200 243.400 L 268.856 242.600 268.856 243.400 M247.680 245.000 C 247.680 245.440,247.824 246.250,248.000 246.800 C 248.254 247.592,248.320 247.633,248.320 247.000 C 248.320 246.560,248.176 245.750,248.000 245.200 C 247.746 244.408,247.680 244.367,247.680 245.000 M347.654 245.867 C 347.625 246.344,347.496 247.064,347.370 247.467 C 347.152 248.161,347.164 248.162,347.596 247.488 C 347.847 247.097,347.975 246.377,347.881 245.888 C 347.709 245.001,347.709 245.001,347.654 245.867 M325.867 246.267 C 325.720 246.413,325.611 246.908,325.625 247.367 C 325.649 248.133,325.682 248.123,326.034 247.242 C 326.426 246.263,326.344 245.789,325.867 246.267 M248.456 248.800 C 248.456 249.130,248.611 249.760,248.800 250.200 C 249.017 250.704,249.144 250.778,249.144 250.400 C 249.144 250.070,248.989 249.440,248.800 249.000 C 248.583 248.496,248.456 248.422,248.456 248.800 M346.854 249.067 C 346.825 249.544,346.696 250.264,346.570 250.667 C 346.352 251.361,346.364 251.362,346.796 250.688 C 347.047 250.297,347.175 249.577,347.081 249.088 C 346.909 248.201,346.909 248.201,346.854 249.067 M270.456 249.600 C 270.456 249.930,270.611 250.560,270.800 251.000 C 271.017 251.504,271.144 251.578,271.144 251.200 C 271.144 250.870,270.989 250.240,270.800 249.800 C 270.583 249.296,270.456 249.222,270.456 249.600 M324.267 251.867 C 324.120 252.013,324.011 252.508,324.025 252.967 C 324.049 253.733,324.082 253.723,324.434 252.842 C 324.826 251.863,324.744 251.389,324.267 251.867 M346.046 252.067 C 346.021 252.434,345.896 253.064,345.770 253.467 C 345.552 254.162,345.563 254.163,345.997 253.487 C 346.248 253.096,346.373 252.466,346.273 252.087 C 346.111 251.468,346.088 251.466,346.046 252.067 M271.212 252.400 C 271.212 252.730,271.387 253.270,271.600 253.600 C 271.945 254.133,271.988 254.133,271.988 253.600 C 271.988 253.270,271.813 252.730,271.600 252.400 C 271.255 251.867,271.212 251.867,271.212 252.400 M322.267 257.667 C 321.905 258.588,321.674 259.407,321.754 259.488 C 321.834 259.568,322.200 258.883,322.567 257.967 C 322.933 257.050,323.164 256.231,323.079 256.146 C 322.994 256.061,322.629 256.745,322.267 257.667 M252.017 260.647 C 251.995 261.228,253.671 265.263,253.857 265.076 C 253.935 264.998,253.557 263.869,253.017 262.567 C 252.476 261.265,252.026 260.401,252.017 260.647 M275.786 263.100 C 276.135 263.815,276.506 264.400,276.610 264.400 C 277.008 264.400,276.752 263.763,275.967 262.800 L 275.152 261.800 275.786 263.100 M317.902 265.867 C 317.078 267.065,316.580 267.936,316.796 267.802 C 317.309 267.485,319.719 263.982,319.539 263.817 C 319.462 263.747,318.726 264.669,317.902 265.867 M254.000 265.778 C 254.000 266.243,257.587 273.336,258.057 273.800 C 258.397 274.136,254.556 266.128,254.140 265.633 C 254.063 265.542,254.000 265.607,254.000 265.778 M278.217 266.791 C 279.005 267.941,281.600 270.802,281.583 270.501 C 281.573 270.336,280.718 269.296,279.683 268.191 C 278.647 267.085,277.988 266.455,278.217 266.791 M314.323 270.209 C 313.291 271.194,312.579 272.000,312.740 272.000 C 312.901 272.000,313.828 271.190,314.800 270.200 C 317.077 267.880,316.758 267.886,314.323 270.209 M310.481 273.372 C 308.725 274.614,308.297 275.145,309.800 274.218 C 311.878 272.935,312.591 272.399,312.189 272.420 C 311.975 272.430,311.207 272.859,310.481 273.372 M284.577 273.163 C 284.728 273.406,285.424 273.883,286.125 274.222 C 287.309 274.794,287.343 274.792,286.600 274.190 C 285.385 273.205,284.245 272.626,284.577 273.163 M291.633 276.547 C 291.725 276.628,292.520 276.804,293.400 276.938 C 294.515 277.107,294.758 277.071,294.200 276.819 C 293.432 276.471,291.290 276.244,291.633 276.547 M301.400 276.800 L 300.600 277.144 301.400 277.132 C 301.840 277.126,302.650 276.976,303.200 276.800 L 304.200 276.480 303.200 276.468 C 302.650 276.462,301.840 276.611,301.400 276.800 M333.881 279.100 C 332.561 280.967,332.392 281.320,333.333 280.245 C 334.595 278.801,336.210 276.400,335.918 276.400 C 335.848 276.400,334.931 277.615,333.881 279.100 M260.800 278.338 C 260.800 278.524,261.188 279.019,261.662 279.438 L 262.524 280.200 261.816 279.100 C 261.086 277.966,260.800 277.751,260.800 278.338 M263.389 281.585 C 264.840 283.451,268.986 287.651,270.200 288.483 C 270.860 288.935,270.345 288.337,269.056 287.153 C 267.766 285.969,265.786 284.003,264.656 282.785 C 263.525 281.566,262.955 281.026,263.389 281.585 M328.591 285.280 C 326.836 287.083,326.210 287.848,327.200 286.980 C 329.017 285.385,332.241 282.000,331.943 282.000 C 331.854 282.000,330.345 283.476,328.591 285.280 M323.600 289.649 C 322.206 290.871,322.205 290.872,323.488 290.019 C 324.196 289.548,324.882 288.991,325.012 288.781 C 325.397 288.157,325.077 288.354,323.600 289.649 M272.785 290.371 C 273.547 291.047,274.342 291.600,274.552 291.600 C 274.762 291.600,274.858 291.548,274.767 291.484 C 274.675 291.420,273.880 290.867,273.000 290.255 L 271.400 289.142 272.785 290.371 M317.600 293.200 C 316.830 293.622,316.344 293.974,316.520 293.983 C 316.944 294.005,319.200 292.832,319.200 292.590 C 319.200 292.328,319.177 292.337,317.600 293.200 M314.000 294.800 C 313.010 295.215,312.403 295.565,312.651 295.578 C 313.218 295.606,316.000 294.457,316.000 294.195 C 316.000 293.948,316.112 293.914,314.000 294.800 M284.400 295.982 C 284.730 296.205,285.345 296.391,285.767 296.394 C 286.790 296.402,286.471 296.173,285.000 295.844 C 284.124 295.648,283.962 295.685,284.400 295.982 M310.400 296.000 C 309.576 296.264,309.541 296.326,310.200 296.354 C 310.640 296.373,311.270 296.213,311.600 296.000 C 312.301 295.547,311.814 295.547,310.400 296.000 M306.800 296.800 C 305.433 297.088,305.428 297.095,306.600 297.119 C 307.260 297.133,308.160 296.989,308.600 296.800 C 309.562 296.387,308.764 296.387,306.800 296.800 M288.500 297.076 C 288.885 297.176,289.515 297.176,289.900 297.076 C 290.285 296.975,289.970 296.893,289.200 296.893 C 288.430 296.893,288.115 296.975,288.500 297.076 M291.800 297.633 C 292.460 297.783,295.250 297.906,298.000 297.906 C 304.409 297.907,303.428 297.688,296.200 297.504 C 293.120 297.425,291.140 297.484,291.800 297.633 M388.800 388.333 C 388.800 388.688,343.500 388.824,199.900 388.900 L 11.000 388.999 199.780 389.100 C 379.911 389.196,390.078 389.145,389.073 388.140 C 388.923 387.990,388.800 388.077,388.800 388.333 M399.600 396.332 C 399.600 396.588,398.932 397.563,398.115 398.499 C 396.705 400.113,396.696 400.139,397.949 399.000 C 399.400 397.681,400.193 396.460,399.832 396.099 C 399.705 395.971,399.600 396.076,399.600 396.332 M0.800 397.725 C 0.800 397.794,1.385 398.379,2.100 399.025 L 3.400 400.200 2.225 398.900 C 1.130 397.688,0.800 397.416,0.800 397.725 " stroke="none" fill="#fc9c9c" fill-rule="evenodd"></path><path id="path4" d="M79.400 10.699 C 263.170 10.970,389.106 10.971,388.938 10.700 C 388.836 10.535,303.758 10.444,199.876 10.499 C 95.994 10.553,41.780 10.643,79.400 10.699 M10.997 116.400 C 10.997 174.370,11.043 198.085,11.100 169.100 C 11.157 140.115,11.157 92.685,11.100 63.700 C 11.043 34.715,10.997 58.430,10.997 116.400 M388.996 88.600 C 388.996 130.840,389.043 148.061,389.100 126.868 C 389.157 105.676,389.157 71.116,389.100 50.068 C 389.043 29.021,388.996 46.360,388.996 88.600 M291.800 102.757 C 290.920 102.891,293.601 103.000,297.758 103.000 C 301.915 103.000,304.615 102.875,303.758 102.723 C 301.895 102.392,294.055 102.414,291.800 102.757 M287.000 103.600 L 286.200 103.944 287.000 103.932 C 287.440 103.926,288.250 103.776,288.800 103.600 L 289.800 103.280 288.800 103.268 C 288.250 103.262,287.440 103.411,287.000 103.600 M307.000 103.600 C 307.440 103.789,308.160 103.944,308.600 103.944 L 309.400 103.944 308.600 103.600 C 308.160 103.411,307.440 103.256,307.000 103.256 L 306.200 103.256 307.000 103.600 M310.400 104.400 C 310.730 104.613,311.360 104.778,311.800 104.766 L 312.600 104.744 311.800 104.400 C 310.604 103.886,309.605 103.886,310.400 104.400 M281.000 105.578 C 280.120 105.995,279.580 106.336,279.800 106.338 C 280.346 106.342,283.502 104.864,283.000 104.840 C 282.780 104.830,281.880 105.162,281.000 105.578 M54.500 106.298 C 56.645 106.370,60.155 106.370,62.300 106.298 C 64.445 106.226,62.690 106.167,58.400 106.167 C 54.110 106.167,52.355 106.226,54.500 106.298 M104.121 106.298 C 106.277 106.371,109.697 106.370,111.721 106.298 C 113.744 106.225,111.980 106.166,107.800 106.167 C 103.620 106.167,101.964 106.226,104.121 106.298 M153.300 106.298 C 155.445 106.370,158.955 106.370,161.100 106.298 C 163.245 106.226,161.490 106.167,157.200 106.167 C 152.910 106.167,151.155 106.226,153.300 106.298 M203.321 106.298 C 205.477 106.371,208.897 106.370,210.921 106.298 C 212.944 106.225,211.180 106.166,207.000 106.167 C 202.820 106.167,201.164 106.226,203.321 106.298 M99.798 157.600 C 99.800 208.319,99.804 208.600,100.600 208.639 C 101.206 208.669,101.231 208.638,100.702 208.512 C 100.042 208.354,99.997 205.500,99.899 157.472 L 99.795 106.600 99.798 157.600 M116.000 156.280 C 115.890 183.824,115.936 206.224,116.102 206.058 C 116.267 205.893,116.357 183.357,116.302 155.978 L 116.200 106.200 116.000 156.280 M198.997 200.000 C 198.997 251.590,199.043 272.695,199.100 246.900 C 199.157 221.105,199.157 178.895,199.100 153.100 C 199.043 127.305,198.997 148.410,198.997 200.000 M214.997 200.000 C 214.997 251.590,215.043 272.695,215.100 246.900 C 215.157 221.105,215.157 178.895,215.100 153.100 C 215.043 127.305,214.997 148.410,214.997 200.000 M277.465 107.047 C 276.840 107.386,276.406 107.739,276.500 107.833 C 276.687 108.020,279.200 106.846,279.200 106.571 C 279.200 106.262,278.618 106.422,277.465 107.047 M66.594 160.000 C 66.594 189.370,66.642 201.385,66.700 186.700 C 66.758 172.015,66.758 147.985,66.700 133.300 C 66.642 118.615,66.594 130.630,66.594 160.000 M319.200 107.967 C 320.163 108.752,320.800 109.008,320.800 108.610 C 320.800 108.506,320.215 108.135,319.500 107.786 L 318.200 107.152 319.200 107.967 M272.996 109.860 C 268.567 112.806,263.109 118.666,259.544 124.300 C 258.015 126.716,259.069 125.621,260.890 122.900 C 264.223 117.922,269.715 112.332,273.900 109.658 C 275.711 108.501,276.314 108.000,275.896 108.000 C 275.838 108.000,274.533 108.837,272.996 109.860 M322.400 109.725 C 322.400 109.824,323.061 110.409,323.868 111.025 C 324.676 111.641,325.211 111.941,325.056 111.691 C 324.740 111.179,322.400 109.447,322.400 109.725 M325.644 112.500 C 325.741 112.555,327.076 113.770,328.610 115.200 L 331.400 117.800 328.812 115.100 C 327.388 113.615,326.053 112.400,325.845 112.400 C 325.637 112.400,325.546 112.445,325.644 112.500 M334.645 122.742 C 335.697 124.300,336.629 125.504,336.715 125.418 C 336.916 125.217,333.746 120.538,333.167 120.180 C 332.927 120.031,333.592 121.185,334.645 122.742 M295.900 122.695 C 297.055 122.776,298.945 122.776,300.100 122.695 C 301.255 122.614,300.310 122.548,298.000 122.548 C 295.690 122.548,294.745 122.614,295.900 122.695 M290.186 123.554 C 288.040 124.327,286.400 125.123,286.400 125.392 C 286.400 125.481,287.255 125.176,288.300 124.712 C 289.345 124.249,291.010 123.645,292.000 123.371 C 292.990 123.096,293.440 122.862,293.000 122.850 C 292.560 122.838,291.294 123.155,290.186 123.554 M304.400 123.464 C 304.730 123.574,305.675 123.919,306.500 124.229 C 307.325 124.540,308.000 124.707,308.000 124.602 C 308.000 124.293,305.162 123.197,304.451 123.232 C 303.912 123.258,303.903 123.298,304.400 123.464 M308.433 124.923 C 310.622 126.544,312.798 127.930,312.793 127.699 C 312.785 127.381,308.997 124.800,308.538 124.800 C 308.389 124.800,308.342 124.856,308.433 124.923 M257.853 127.300 L 257.133 128.600 257.958 127.600 C 258.689 126.713,259.014 126.000,258.686 126.000 C 258.624 126.000,258.249 126.585,257.853 127.300 M337.833 127.892 C 338.447 129.043,339.014 129.919,339.094 129.839 C 339.267 129.666,337.698 126.771,337.121 126.200 C 336.899 125.980,337.219 126.742,337.833 127.892 M282.000 128.525 C 281.230 129.243,280.154 130.364,279.609 131.016 C 279.064 131.667,279.739 131.126,281.109 129.813 C 283.376 127.639,283.797 127.182,283.500 127.209 C 283.445 127.214,282.770 127.806,282.000 128.525 M314.249 129.200 C 314.935 129.970,315.835 131.029,316.248 131.554 C 318.027 133.810,318.793 134.485,317.604 132.750 C 316.907 131.733,315.586 130.203,314.669 129.350 C 313.078 127.871,313.058 127.864,314.249 129.200 M339.309 130.700 C 339.395 130.865,339.774 131.675,340.152 132.500 C 340.529 133.325,340.930 134.000,341.042 134.000 C 341.155 134.000,341.177 133.865,341.091 133.700 C 341.005 133.535,340.626 132.725,340.248 131.900 C 339.871 131.075,339.470 130.400,339.358 130.400 C 339.245 130.400,339.223 130.535,339.309 130.700 M254.655 133.455 C 254.276 134.249,254.053 134.986,254.159 135.093 C 254.266 135.199,254.636 134.609,254.982 133.782 C 255.798 131.829,255.549 131.580,254.655 133.455 M277.365 133.811 C 276.773 134.587,276.372 135.306,276.475 135.408 C 276.577 135.511,277.132 134.876,277.707 133.997 C 279.001 132.021,278.809 131.917,277.365 133.811 M319.400 136.000 C 319.741 136.660,320.111 137.200,320.221 137.200 C 320.331 137.200,320.141 136.660,319.800 136.000 C 319.459 135.340,319.089 134.800,318.979 134.800 C 318.869 134.800,319.059 135.340,319.400 136.000 M275.414 137.035 C 275.041 137.604,274.805 138.138,274.889 138.222 C 274.973 138.307,275.358 137.841,275.744 137.188 C 276.606 135.728,276.348 135.609,275.414 137.035 M252.600 138.400 C 252.450 138.873,252.417 139.350,252.527 139.460 C 252.637 139.570,252.850 139.273,253.000 138.800 C 253.150 138.327,253.183 137.850,253.073 137.740 C 252.963 137.630,252.750 137.927,252.600 138.400 M273.434 140.963 C 272.250 143.552,270.306 149.239,270.529 149.462 C 270.616 149.549,271.172 148.154,271.764 146.363 C 272.651 143.678,273.852 140.697,274.690 139.100 C 274.776 138.935,274.752 138.800,274.635 138.800 C 274.519 138.800,273.978 139.773,273.434 140.963 M344.428 143.476 C 344.413 143.958,344.580 144.464,344.800 144.600 C 345.273 144.892,345.273 144.501,344.800 143.400 C 344.469 142.629,344.455 142.631,344.428 143.476 M250.200 145.600 C 250.050 146.073,250.017 146.550,250.127 146.660 C 250.237 146.770,250.450 146.473,250.600 146.000 C 250.750 145.527,250.783 145.050,250.673 144.940 C 250.563 144.830,250.350 145.127,250.200 145.600 M324.456 147.200 C 324.456 147.530,324.611 148.160,324.800 148.600 C 325.017 149.104,325.144 149.178,325.144 148.800 C 325.144 148.470,324.989 147.840,324.800 147.400 C 324.583 146.896,324.456 146.822,324.456 147.200 M249.429 148.629 C 249.281 149.215,249.238 149.772,249.332 149.866 C 249.427 149.960,249.624 149.558,249.771 148.971 C 249.919 148.385,249.962 147.828,249.868 147.734 C 249.773 147.640,249.576 148.042,249.429 148.629 M346.034 149.000 C 346.022 149.440,346.187 150.070,346.400 150.400 C 346.914 151.195,346.914 150.196,346.400 149.000 L 346.056 148.200 346.034 149.000 M325.444 150.600 C 325.773 152.071,326.002 152.390,325.994 151.367 C 325.991 150.945,325.805 150.330,325.582 150.000 C 325.285 149.562,325.248 149.724,325.444 150.600 M270.046 150.467 C 270.021 150.834,269.896 151.464,269.770 151.867 C 269.552 152.562,269.563 152.563,269.997 151.887 C 270.248 151.496,270.373 150.866,270.273 150.487 C 270.111 149.868,270.088 149.866,270.046 150.467 M248.649 151.415 C 248.512 151.773,248.416 152.456,248.436 152.933 C 248.462 153.547,248.585 153.408,248.859 152.456 C 249.257 151.072,249.094 150.258,248.649 151.415 M346.834 152.200 C 346.822 152.640,346.987 153.270,347.200 153.600 C 347.714 154.395,347.714 153.396,347.200 152.200 L 346.856 151.400 346.834 152.200 M326.046 152.800 C 326.065 153.130,326.224 153.850,326.400 154.400 L 326.720 155.400 326.754 154.400 C 326.773 153.850,326.613 153.130,326.400 152.800 C 326.055 152.267,326.016 152.267,326.046 152.800 M269.022 154.222 C 268.872 155.025,268.838 155.772,268.948 155.882 C 269.058 155.992,269.272 155.425,269.422 154.622 C 269.573 153.819,269.606 153.073,269.496 152.963 C 269.386 152.853,269.173 153.419,269.022 154.222 M347.687 155.600 C 347.683 156.150,347.824 157.050,348.000 157.600 C 348.431 158.944,348.431 157.492,348.000 155.800 C 347.726 154.722,347.694 154.702,347.687 155.600 M327.073 157.200 C 327.204 158.190,327.376 159.075,327.456 159.167 C 327.757 159.514,327.528 156.964,327.190 156.200 C 326.953 155.666,326.914 155.998,327.073 157.200 M268.222 158.222 C 268.072 159.025,268.028 159.762,268.126 159.860 C 268.224 159.957,268.427 159.381,268.578 158.578 C 268.728 157.775,268.772 157.038,268.674 156.940 C 268.576 156.843,268.373 157.419,268.222 158.222 M247.069 159.156 C 246.921 159.895,246.820 160.883,246.844 161.350 C 246.868 161.817,247.047 161.390,247.242 160.400 C 247.437 159.410,247.538 158.423,247.467 158.206 C 247.396 157.990,247.217 158.417,247.069 159.156 M348.480 160.000 C 348.480 160.550,348.624 161.450,348.800 162.000 L 349.120 163.000 349.120 162.000 C 349.120 161.450,348.976 160.550,348.800 160.000 L 348.480 159.000 348.480 160.000 M327.882 161.400 C 328.009 162.500,328.177 163.475,328.256 163.567 C 328.555 163.914,328.328 160.964,327.997 160.200 C 327.774 159.685,327.733 160.113,327.882 161.400 M267.400 162.400 C 267.246 163.310,267.211 164.144,267.321 164.254 C 267.431 164.364,267.646 163.710,267.800 162.800 C 267.954 161.890,267.989 161.056,267.879 160.946 C 267.769 160.836,267.554 161.490,267.400 162.400 M246.253 163.636 C 246.114 164.331,246.022 165.463,246.049 166.150 C 246.078 166.894,246.238 166.440,246.443 165.028 C 246.811 162.504,246.676 161.518,246.253 163.636 M328.694 166.400 C 328.814 167.830,328.977 169.075,329.056 169.167 C 329.335 169.489,329.116 165.788,328.798 164.800 C 328.605 164.200,328.563 164.840,328.694 166.400 M349.295 164.800 C 349.295 165.350,349.432 166.340,349.600 167.000 C 349.872 168.070,349.905 168.092,349.905 167.200 C 349.905 166.650,349.768 165.660,349.600 165.000 C 349.328 163.930,349.295 163.908,349.295 164.800 M266.587 168.187 C 266.431 169.644,266.393 170.926,266.503 171.036 C 266.613 171.146,266.831 170.044,266.987 168.587 C 267.143 167.129,267.180 165.847,267.070 165.737 C 266.960 165.627,266.743 166.729,266.587 168.187 M363.800 168.400 C 362.615 168.702,362.618 168.706,364.124 168.753 C 365.048 168.781,365.550 168.643,365.400 168.400 C 365.264 168.180,365.118 168.021,365.076 168.047 C 365.034 168.073,364.460 168.232,363.800 168.400 M358.200 169.200 L 357.000 169.505 358.200 169.513 C 358.860 169.517,359.850 169.376,360.400 169.200 L 361.400 168.880 360.400 168.887 C 359.850 168.891,358.860 169.032,358.200 169.200 M329.366 171.272 C 329.515 173.427,329.126 173.982,327.420 174.046 C 326.683 174.074,326.490 174.168,326.932 174.282 C 329.158 174.857,330.038 173.826,329.563 171.200 L 329.237 169.400 329.366 171.272 M353.200 170.000 L 352.200 170.320 353.200 170.313 C 353.750 170.309,354.740 170.168,355.400 170.000 L 356.600 169.695 355.400 169.687 C 354.740 169.683,353.750 169.824,353.200 170.000 M245.073 173.760 C 244.915 175.718,244.863 177.396,244.956 177.489 C 245.203 177.736,245.712 171.863,245.522 170.962 C 245.433 170.543,245.231 171.802,245.073 173.760 M265.889 174.556 C 265.730 175.632,265.623 177.252,265.651 178.156 C 265.689 179.414,265.786 179.142,266.063 177.000 C 266.478 173.779,266.324 171.611,265.889 174.556 M365.523 178.601 C 365.455 181.351,365.535 183.601,365.700 183.601 C 365.865 183.600,366.000 181.350,366.000 178.600 C 366.000 172.134,365.682 172.134,365.523 178.601 M322.200 174.800 L 320.600 175.086 322.000 175.103 C 322.770 175.113,323.850 174.976,324.400 174.800 C 325.685 174.388,324.499 174.388,322.200 174.800 M317.200 175.600 L 315.800 175.895 317.200 175.919 C 317.970 175.933,318.960 175.789,319.400 175.600 L 320.200 175.256 319.400 175.281 C 318.960 175.294,317.970 175.438,317.200 175.600 M312.200 176.400 L 310.600 176.686 312.000 176.703 C 312.770 176.713,313.850 176.576,314.400 176.400 C 315.685 175.988,314.499 175.988,312.200 176.400 M306.800 177.200 L 305.000 177.480 306.600 177.500 C 307.480 177.511,308.650 177.376,309.200 177.200 C 310.463 176.795,309.402 176.795,306.800 177.200 M301.800 178.000 L 300.200 178.286 301.600 178.303 C 302.370 178.313,303.450 178.176,304.000 178.000 C 305.285 177.588,304.099 177.588,301.800 178.000 M296.800 178.800 L 295.000 179.080 296.600 179.100 C 297.480 179.111,298.650 178.976,299.200 178.800 C 300.463 178.395,299.402 178.395,296.800 178.800 M244.400 182.551 C 244.400 186.423,244.215 186.914,242.600 187.311 C 241.855 187.494,241.860 187.510,242.671 187.554 C 244.374 187.644,244.800 186.646,244.800 182.571 C 244.800 180.497,244.710 178.800,244.600 178.800 C 244.490 178.800,244.400 180.488,244.400 182.551 M290.705 179.883 C 291.202 179.979,291.922 179.975,292.305 179.875 C 292.687 179.775,292.280 179.696,291.400 179.701 C 290.520 179.705,290.207 179.787,290.705 179.883 M388.997 284.000 C 388.997 341.310,389.043 364.755,389.100 336.100 C 389.157 307.445,389.157 260.555,389.100 231.900 C 389.043 203.245,388.997 226.690,388.997 284.000 M284.000 180.813 C 283.354 181.029,283.780 181.066,285.200 180.919 C 286.410 180.794,287.475 180.626,287.567 180.546 C 287.887 180.265,284.991 180.483,284.000 180.813 M278.600 181.600 C 276.937 182.023,278.574 182.042,280.600 181.623 C 281.945 181.345,282.009 181.292,281.000 181.293 C 280.340 181.294,279.260 181.432,278.600 181.600 M273.600 182.420 C 272.926 182.649,273.251 182.684,274.600 182.528 C 275.700 182.401,276.675 182.231,276.767 182.149 C 277.082 181.868,274.599 182.080,273.600 182.420 M268.200 183.220 C 267.411 183.435,267.822 183.470,269.400 183.323 C 270.720 183.200,271.875 183.032,271.967 182.950 C 272.264 182.682,269.434 182.885,268.200 183.220 M361.000 184.000 L 359.800 184.305 361.000 184.313 C 361.660 184.317,362.650 184.176,363.200 184.000 L 364.200 183.680 363.200 183.687 C 362.650 183.691,361.660 183.832,361.000 184.000 M356.200 184.800 C 355.130 185.072,355.108 185.105,356.000 185.105 C 356.550 185.105,357.540 184.968,358.200 184.800 C 359.270 184.528,359.292 184.495,358.400 184.495 C 357.850 184.495,356.860 184.632,356.200 184.800 M351.680 185.680 C 351.416 185.944,351.218 186.529,351.240 186.980 C 351.273 187.667,351.325 187.639,351.558 186.801 C 351.747 186.119,352.212 185.721,353.018 185.548 C 354.130 185.310,354.140 185.292,353.180 185.247 C 352.619 185.221,351.944 185.416,351.680 185.680 M237.400 188.000 L 236.200 188.305 237.400 188.313 C 238.060 188.317,239.050 188.176,239.600 188.000 L 240.600 187.680 239.600 187.687 C 239.050 187.691,238.060 187.832,237.400 188.000 M232.400 188.800 L 231.000 189.095 232.400 189.119 C 233.170 189.133,234.160 188.989,234.600 188.800 L 235.400 188.456 234.600 188.481 C 234.160 188.494,233.170 188.638,232.400 188.800 M329.482 189.060 C 330.256 189.227,330.383 189.557,330.510 191.726 L 330.655 194.200 330.627 191.600 C 330.601 189.119,330.554 188.997,329.600 188.934 C 328.753 188.879,328.735 188.898,329.482 189.060 M228.480 189.680 C 228.143 190.017,228.000 192.278,228.000 197.293 C 228.000 205.417,227.889 205.176,231.324 204.489 L 233.400 204.074 230.891 204.290 L 228.382 204.505 228.491 197.170 L 228.600 189.835 229.600 189.558 C 230.438 189.325,230.467 189.273,229.780 189.240 C 229.329 189.218,228.744 189.416,228.480 189.680 M322.400 190.013 C 321.754 190.229,322.180 190.266,323.600 190.119 C 324.810 189.994,325.875 189.826,325.967 189.746 C 326.287 189.465,323.391 189.683,322.400 190.013 M317.200 190.807 C 316.579 191.011,317.109 191.051,318.600 190.912 C 319.920 190.789,321.075 190.624,321.167 190.544 C 321.489 190.265,318.188 190.484,317.200 190.807 M313.905 191.483 C 314.402 191.579,315.122 191.575,315.505 191.475 C 315.887 191.375,315.480 191.296,314.600 191.301 C 313.720 191.305,313.407 191.387,313.905 191.483 M307.000 192.420 C 306.461 192.665,306.854 192.705,308.200 192.541 C 309.300 192.407,310.275 192.231,310.367 192.149 C 310.717 191.836,307.761 192.074,307.000 192.420 M351.767 200.000 C 351.767 204.290,351.826 206.045,351.898 203.900 C 351.970 201.755,351.970 198.245,351.898 196.100 C 351.826 193.955,351.767 195.710,351.767 200.000 M302.000 193.213 C 301.354 193.429,301.780 193.466,303.200 193.319 C 304.410 193.194,305.475 193.026,305.567 192.946 C 305.887 192.665,302.991 192.883,302.000 193.213 M296.800 194.020 C 296.126 194.249,296.451 194.284,297.800 194.128 C 298.900 194.001,299.875 193.831,299.967 193.749 C 300.282 193.468,297.799 193.680,296.800 194.020 M291.800 194.820 C 291.261 195.065,291.654 195.105,293.000 194.941 C 294.100 194.807,295.075 194.631,295.167 194.549 C 295.517 194.236,292.561 194.474,291.800 194.820 M286.800 195.620 C 286.126 195.849,286.451 195.884,287.800 195.728 C 288.900 195.601,289.875 195.431,289.967 195.349 C 290.282 195.068,287.799 195.280,286.800 195.620 M330.954 200.000 C 330.954 202.750,331.018 203.875,331.096 202.500 C 331.174 201.125,331.174 198.875,331.096 197.500 C 331.018 196.125,330.954 197.250,330.954 200.000 M281.400 196.420 C 280.861 196.665,281.254 196.705,282.600 196.541 C 283.700 196.407,284.675 196.231,284.767 196.149 C 285.117 195.836,282.161 196.074,281.400 196.420 M276.400 197.200 L 275.400 197.520 276.400 197.513 C 276.950 197.509,277.940 197.368,278.600 197.200 L 279.800 196.895 278.600 196.887 C 277.940 196.883,276.950 197.024,276.400 197.200 M271.200 198.000 L 270.200 198.320 271.200 198.313 C 271.750 198.309,272.740 198.168,273.400 198.000 L 274.600 197.695 273.400 197.687 C 272.740 197.683,271.750 197.824,271.200 198.000 M265.900 198.865 L 264.800 199.267 264.840 205.133 C 264.862 208.360,265.017 212.530,265.185 214.400 C 265.406 216.866,265.478 215.275,265.445 208.607 L 265.400 199.414 267.400 198.945 C 268.886 198.597,269.091 198.475,268.200 198.470 C 267.540 198.466,266.505 198.644,265.900 198.865 M240.400 202.800 C 239.043 203.086,239.037 203.095,240.200 203.107 C 240.860 203.115,241.850 202.976,242.400 202.800 C 243.712 202.380,242.396 202.380,240.400 202.800 M235.400 203.600 C 234.330 203.872,234.308 203.905,235.200 203.905 C 235.750 203.905,236.740 203.768,237.400 203.600 C 238.470 203.328,238.492 203.295,237.600 203.295 C 237.050 203.295,236.060 203.432,235.400 203.600 M330.561 211.600 C 330.561 215.010,330.622 216.405,330.697 214.700 C 330.772 212.995,330.772 210.205,330.697 208.500 C 330.622 206.795,330.561 208.190,330.561 211.600 M244.142 210.600 C 244.141 212.580,244.208 213.440,244.292 212.512 C 244.376 211.584,244.377 209.964,244.295 208.912 C 244.212 207.860,244.143 208.620,244.142 210.600 M351.073 217.348 C 350.902 219.959,350.843 222.176,350.941 222.275 C 351.198 222.531,351.705 215.238,351.531 213.800 C 351.450 213.140,351.245 214.736,351.073 217.348 M244.544 218.000 C 244.544 220.090,244.612 220.945,244.694 219.900 C 244.776 218.855,244.776 217.145,244.694 216.100 C 244.612 215.055,244.544 215.910,244.544 218.000 M330.114 220.600 C 330.117 221.700,330.195 222.103,330.287 221.495 C 330.379 220.886,330.377 219.986,330.282 219.495 C 330.187 219.003,330.111 219.500,330.114 220.600 M115.098 220.288 L 115.996 220.453 116.101 256.926 L 116.206 293.400 116.203 256.800 L 116.200 220.200 115.200 220.161 C 114.334 220.128,114.320 220.145,115.098 220.288 M265.686 222.200 C 265.671 223.300,265.803 225.010,265.980 226.000 L 266.300 227.800 266.310 226.200 C 266.316 225.320,266.184 223.610,266.017 222.400 L 265.713 220.200 265.686 222.200 M245.089 225.800 C 245.208 227.780,245.372 229.475,245.453 229.567 C 245.724 229.874,245.544 225.819,245.206 224.000 C 244.970 222.731,244.936 223.263,245.089 225.800 M99.792 258.200 C 99.792 277.780,99.840 285.731,99.900 275.870 C 99.960 266.008,99.959 249.988,99.900 240.270 C 99.840 230.551,99.791 238.620,99.792 258.200 M329.724 225.000 C 329.726 226.320,329.801 226.812,329.890 226.093 C 329.979 225.374,329.977 224.294,329.886 223.693 C 329.795 223.092,329.722 223.680,329.724 225.000 M350.264 226.950 C 350.101 228.463,350.050 229.783,350.151 229.884 C 350.414 230.147,350.910 225.850,350.719 224.953 C 350.631 224.539,350.426 225.438,350.264 226.950 M66.591 260.600 C 66.591 278.640,66.640 285.962,66.700 276.870 C 66.760 267.779,66.760 253.019,66.700 244.070 C 66.640 235.122,66.591 242.560,66.591 260.600 M329.293 229.200 C 329.293 229.970,329.375 230.285,329.476 229.900 C 329.576 229.515,329.576 228.885,329.476 228.500 C 329.375 228.115,329.293 228.430,329.293 229.200 M266.473 230.200 C 266.458 230.860,266.595 232.120,266.777 233.000 C 267.213 235.106,267.250 233.214,266.820 230.800 C 266.580 229.450,266.493 229.300,266.473 230.200 M328.867 232.050 C 328.830 232.847,328.711 234.107,328.601 234.850 L 328.403 236.200 328.823 234.860 C 329.054 234.123,329.174 232.863,329.089 232.060 L 328.934 230.600 328.867 232.050 M349.400 234.000 C 349.245 235.128,349.208 236.141,349.318 236.251 C 349.428 236.361,349.645 235.528,349.800 234.400 C 349.955 233.272,349.992 232.259,349.882 232.149 C 349.772 232.039,349.555 232.872,349.400 234.000 M246.040 234.233 C 246.062 235.095,246.227 236.250,246.407 236.800 C 246.611 237.421,246.651 236.891,246.512 235.400 C 246.254 232.621,245.982 231.949,246.040 234.233 M9.899 235.862 L 10.798 236.055 10.899 312.728 L 11.000 389.400 199.780 389.500 C 303.608 389.556,388.694 389.466,388.860 389.300 C 389.025 389.135,304.119 389.045,200.181 389.101 L 11.202 389.202 11.101 312.501 L 11.000 235.800 10.000 235.734 C 9.121 235.677,9.109 235.692,9.899 235.862 M267.280 236.400 C 267.280 236.950,267.424 237.850,267.600 238.400 L 267.920 239.400 267.920 238.400 C 267.920 237.850,267.776 236.950,267.600 236.400 L 267.280 235.400 267.280 236.400 M328.059 237.400 C 328.020 238.060,327.896 239.050,327.783 239.600 L 327.577 240.600 328.008 239.614 C 328.244 239.072,328.368 238.082,328.283 237.414 L 328.128 236.200 328.059 237.400 M348.578 238.978 C 348.427 239.781,348.394 240.527,348.504 240.637 C 348.614 240.747,348.827 240.181,348.978 239.378 C 349.128 238.575,349.162 237.828,349.052 237.718 C 348.942 237.608,348.728 238.175,348.578 238.978 M246.893 239.200 C 246.893 239.970,246.975 240.285,247.076 239.900 C 247.176 239.515,247.176 238.885,247.076 238.500 C 246.975 238.115,246.893 238.430,246.893 239.200 M268.080 240.600 C 268.080 241.040,268.224 241.850,268.400 242.400 C 268.654 243.192,268.720 243.233,268.720 242.600 C 268.720 242.160,268.576 241.350,268.400 240.800 C 268.146 240.008,268.080 239.967,268.080 240.600 M327.254 241.600 C 327.219 242.150,327.096 243.050,326.983 243.600 L 326.777 244.600 327.207 243.615 C 327.443 243.074,327.565 242.174,327.478 241.615 L 327.320 240.600 327.254 241.600 M347.778 243.378 C 347.627 244.181,347.594 244.927,347.704 245.037 C 347.814 245.147,348.027 244.581,348.178 243.778 C 348.328 242.975,348.362 242.228,348.252 242.118 C 348.142 242.008,347.928 242.575,347.778 243.378 M268.868 244.800 C 268.888 245.839,269.518 247.546,269.532 246.600 C 269.538 246.160,269.389 245.440,269.200 245.000 C 268.989 244.510,268.861 244.432,268.868 244.800 M326.454 245.467 C 326.425 245.944,326.296 246.664,326.170 247.067 C 325.952 247.761,325.964 247.762,326.396 247.088 C 326.647 246.697,326.775 245.977,326.681 245.488 C 326.509 244.601,326.509 244.601,326.454 245.467 M347.073 246.553 C 346.923 246.945,346.811 247.566,346.825 247.933 C 346.842 248.375,346.981 248.274,347.237 247.634 C 347.449 247.103,347.561 246.482,347.485 246.254 C 347.409 246.027,347.224 246.161,347.073 246.553 M248.468 247.400 C 248.462 247.840,248.611 248.560,248.800 249.000 C 249.238 250.019,249.238 248.968,248.800 247.600 C 248.543 246.796,248.477 246.757,248.468 247.400 M269.844 248.600 C 270.173 250.071,270.402 250.390,270.394 249.367 C 270.391 248.945,270.205 248.330,269.982 248.000 C 269.685 247.562,269.648 247.724,269.844 248.600 M325.646 248.467 C 325.621 248.834,325.496 249.464,325.370 249.867 C 325.152 250.562,325.163 250.563,325.597 249.887 C 325.848 249.496,325.973 248.866,325.873 248.487 C 325.711 247.868,325.688 247.866,325.646 248.467 M346.273 249.753 C 346.123 250.145,346.011 250.766,346.025 251.133 C 346.042 251.575,346.181 251.474,346.437 250.834 C 346.649 250.303,346.761 249.682,346.685 249.454 C 346.609 249.227,346.424 249.361,346.273 249.753 M249.206 250.633 C 249.209 251.055,249.395 251.670,249.618 252.000 C 249.915 252.438,249.952 252.276,249.756 251.400 C 249.427 249.929,249.198 249.610,249.206 250.633 M324.846 251.267 C 324.821 251.634,324.696 252.264,324.570 252.667 C 324.352 253.362,324.363 253.363,324.797 252.687 C 325.048 252.296,325.173 251.666,325.073 251.287 C 324.911 250.668,324.888 250.666,324.846 251.267 M345.449 253.015 C 345.312 253.373,345.215 253.966,345.234 254.333 C 345.253 254.700,345.427 254.469,345.621 253.820 C 345.998 252.558,345.865 251.933,345.449 253.015 M271.451 253.974 C 271.827 255.439,272.771 257.486,272.755 256.800 C 272.747 256.470,272.394 255.480,271.971 254.600 C 271.548 253.720,271.314 253.438,271.451 253.974 M343.009 260.543 C 342.894 260.904,342.729 261.425,342.642 261.700 C 342.556 261.975,342.093 263.190,341.614 264.400 C 341.135 265.610,340.909 266.420,341.112 266.200 C 341.670 265.594,343.666 260.332,343.427 260.094 C 343.313 259.979,343.125 260.181,343.009 260.543 M320.280 262.480 C 319.892 263.156,319.657 263.791,319.758 263.891 C 319.859 263.992,320.238 263.501,320.600 262.800 C 321.457 261.143,321.197 260.883,320.280 262.480 M275.600 263.356 C 275.600 264.180,280.390 270.400,281.025 270.400 C 281.208 270.400,280.800 269.815,280.119 269.100 C 279.438 268.385,278.143 266.735,277.241 265.434 C 276.338 264.132,275.600 263.197,275.600 263.356 M317.058 267.575 C 316.229 268.662,314.826 270.206,313.940 271.006 C 313.054 271.807,312.412 272.545,312.513 272.646 C 312.730 272.864,317.882 267.368,318.442 266.321 C 319.102 265.088,318.625 265.521,317.058 267.575 M339.084 269.814 C 338.271 271.456,337.693 272.800,337.798 272.800 C 338.065 272.800,340.885 267.151,340.706 266.973 C 340.627 266.893,339.897 268.172,339.084 269.814 M282.656 272.188 C 284.237 273.609,288.716 276.217,289.032 275.901 C 289.129 275.804,288.441 275.382,287.504 274.963 C 286.567 274.543,284.858 273.435,283.706 272.500 C 281.184 270.453,280.499 270.249,282.656 272.188 M258.213 273.600 C 262.106 280.674,269.399 288.306,275.800 292.004 C 278.210 293.396,277.003 292.378,273.400 289.978 C 269.118 287.127,264.307 282.237,261.222 277.600 C 258.891 274.097,257.384 272.093,258.213 273.600 M336.770 274.066 C 336.498 274.580,336.013 275.405,335.692 275.900 C 335.371 276.395,335.195 276.800,335.301 276.800 C 335.636 276.800,337.669 273.536,337.462 273.329 C 337.354 273.220,337.042 273.552,336.770 274.066 M305.800 276.018 C 304.700 276.430,304.093 276.774,304.451 276.783 C 305.179 276.802,308.000 275.698,308.000 275.395 C 308.000 275.288,307.955 275.216,307.900 275.235 C 307.845 275.254,306.900 275.606,305.800 276.018 M293.071 277.257 C 293.472 277.415,295.690 277.532,298.000 277.517 C 302.976 277.486,302.251 277.290,296.471 277.103 C 294.201 277.029,292.671 277.099,293.071 277.257 M333.933 278.500 C 333.426 279.215,332.051 280.970,330.878 282.400 L 328.743 285.000 330.672 282.966 C 332.584 280.947,335.432 277.200,335.052 277.200 C 334.943 277.200,334.440 277.785,333.933 278.500 M325.800 287.477 C 324.368 288.814,324.045 289.225,325.000 288.498 C 326.509 287.349,328.739 285.178,328.370 285.218 C 328.276 285.228,327.120 286.245,325.800 287.477 M320.857 291.017 C 317.982 292.810,317.719 293.180,320.307 291.794 C 321.466 291.173,322.613 290.426,322.856 290.133 C 323.446 289.422,323.344 289.467,320.857 291.017 M278.938 293.647 C 279.784 294.093,280.568 294.365,280.681 294.252 C 280.876 294.057,278.180 292.780,277.651 292.818 C 277.513 292.827,278.092 293.200,278.938 293.647 M54.500 293.898 C 56.645 293.970,60.155 293.970,62.300 293.898 C 64.445 293.826,62.690 293.767,58.400 293.767 C 54.110 293.767,52.355 293.826,54.500 293.898 M104.100 293.898 C 106.245 293.970,109.755 293.970,111.900 293.898 C 114.045 293.826,112.290 293.767,108.000 293.767 C 103.710 293.767,101.955 293.826,104.100 293.898 M153.521 293.899 C 155.788 293.970,159.388 293.970,161.521 293.898 C 163.655 293.826,161.800 293.768,157.400 293.768 C 153.000 293.768,151.255 293.827,153.521 293.899 M203.321 293.898 C 205.477 293.971,208.897 293.970,210.921 293.898 C 212.944 293.825,211.180 293.766,207.000 293.767 C 202.820 293.767,201.164 293.826,203.321 293.898 M281.200 294.585 C 281.200 294.830,285.294 296.039,285.484 295.850 C 285.565 295.769,284.735 295.409,283.640 295.051 C 281.512 294.355,281.200 294.295,281.200 294.585 M310.600 295.600 C 310.308 296.073,310.699 296.073,311.800 295.600 C 312.571 295.269,312.569 295.255,311.724 295.228 C 311.242 295.213,310.736 295.380,310.600 295.600 M287.000 296.400 C 287.440 296.589,288.160 296.744,288.600 296.744 L 289.400 296.744 288.600 296.400 C 288.160 296.211,287.440 296.056,287.000 296.056 L 286.200 296.056 287.000 296.400 M307.000 296.400 L 306.200 296.744 307.000 296.732 C 307.440 296.726,308.250 296.576,308.800 296.400 L 309.800 296.080 308.800 296.068 C 308.250 296.062,307.440 296.211,307.000 296.400 M291.844 297.277 C 293.857 297.635,302.142 297.635,304.159 297.277 C 305.016 297.125,302.246 297.000,298.003 297.000 C 293.760 297.000,290.988 297.125,291.844 297.277 " stroke="none" fill="#fc7c7c" fill-rule="evenodd"></path></g></svg>